<svg aria-hidden="true" style="position:absolute;width:0;height:0" xmlns="http://www.w3.org/2000/svg" overflow="hidden"><defs><symbol id="icon-envelope" viewBox="0 0 45 32"><path d="M40.6 0H4.2C1.884 0 0 1.794 0 4v24c0 2.206 1.884 4 4.2 4h36.4c2.316 0 4.2-1.794 4.2-4V4c0-2.206-1.884-4-4.2-4zm0 2.667c.19 0 .371.038.537.103L22.4 18.236 3.663 2.77c.165-.066.346-.103.537-.103h36.4zm0 26.666H4.2c-.772 0-1.4-.598-1.4-1.333V5.587l18.683 15.421c.264.217.591.326.917.326s.654-.108.917-.326L42 5.587V28c0 .736-.628 1.333-1.4 1.333z"/></symbol><symbol id="icon-smartphone" viewBox="0 0 21 32"><path d="M18.133 0H3.2C1.435 0 0 1.34 0 2.987v25.889c0 1.647 1.435 2.987 3.2 2.987h14.933c1.765 0 3.2-1.34 3.2-2.987V2.987c0-1.647-1.435-2.987-3.2-2.987zM3.2 1.991h14.933c.589 0 1.067.446 1.067.996v20.91H2.133V2.987c0-.549.478-.996 1.067-.996zm14.933 27.881H3.2c-.589 0-1.067-.446-1.067-.996v-2.987H19.2v2.987c0 .55-.478.996-1.067.996z"/><path d="M5.021 27.176c.417.389.417 1.02 0 1.409s-1.092.389-1.508 0c-.417-.389-.417-1.02 0-1.409s1.092-.389 1.508 0z"/></symbol></defs></svg>